Coordinates
version=1
nRows=19
nColumns=36
inDegrees=yes

Units are S.I. units (second, meters, Newtons, ...)
If the header above contains a line with 'inDegrees', this indicates whether rotational values are in degrees (yes) or radians (no).

endheader
time	pelvis_tilt	pelvis_list	pelvis_rotation	pelvis_tx	pelvis_ty	pelvis_tz	hip_flexion_r	hip_adduction_r	hip_rotation_r	knee_angle_r	knee_angle_r_beta	ankle_angle_r	subtalar_angle_r	mtp_angle_r	hip_flexion_l	hip_adduction_l	hip_rotation_l	knee_angle_l	knee_angle_l_beta	ankle_angle_l	subtalar_angle_l	mtp_angle_l	lumbar_extension	lumbar_bending	lumbar_rotation	arm_flex_r	arm_add_r	arm_rot_r	elbow_flex_r	pro_sup_r	arm_flex_l	arm_add_l	arm_rot_l	elbow_flex_l	pro_sup_l
      1.91666670	     -2.02783121	      2.37807637	     -4.68573865	      0.29742194	      0.84048943	      0.06078402	      3.58687804	      5.90118355	     -7.24693870	      8.50745039	      0.14848302	      2.97985458	     -9.83035220	     -7.49999987	     13.42895273	     -1.66824379	     -5.15377968	     22.60738824	      0.39457336	      0.89587910	    -13.41897835	     -7.49999987	     -6.50007534	     -2.26585166	      5.77808851	     93.49975371	      6.13153919	     69.42996380	    117.73822082	    103.42883574	     79.91940456	     11.70421739	     55.03103852	    135.58988766	     90.64952378
      1.93333330	     -2.41761468	      2.42913524	     -4.72698944	      0.29822757	      0.84032772	      0.06043849	      3.83911369	      5.88054495	     -7.41105914	      8.22858797	      0.14361595	      2.46095593	     -9.62846154	     -7.49999987	     13.48487090	     -1.43771830	     -4.66181552	     22.63248271	      0.39501134	      0.96178688	    -13.70320830	     -7.49999987	     -6.00766593	     -2.36537069	      5.61088287	     93.07987810	      6.06968852	     69.40117230	    117.04195704	    102.94667567	     79.38627862	     11.25358972	     54.88923606	    135.27783857	     89.83892142
      1.95000000	     -2.18757299	      2.36547591	     -4.70223672	      0.29788196	      0.84074501	      0.06025329	      3.43378286	      5.96861392	     -7.45377063	      7.84478879	      0.13691739	      1.86066299	     -9.99001257	     -7.49999987	     12.89741036	     -1.23395245	     -3.98155981	     22.44643748	      0.39176424	      0.56561126	    -14.66467519	     -7.49999987	     -6.44827049	     -2.38467329	      5.61489001	     93.11697801	      6.04459248	     69.83344015	    116.43304409	    103.17921048	     79.51394450	     11.20002741	     55.20373334	    135.12072056	     90.11822772
      1.96666670	     -2.33865203	      2.42718305	     -4.42642690	      0.29743899	      0.84227311	      0.06026259	      3.42731209	      5.95151195	     -7.53402402	      7.52541612	      0.13134329	      1.63069224	     -9.91508048	     -7.49999987	     12.73307984	     -1.04937573	     -3.30701292	     22.51980314	      0.39304471	      0.37946638	    -15.36718059	     -7.49999987	     -6.10187111	     -2.49151314	      5.55677567	     92.77117634	      6.10704462	     69.38406929	    118.24271074	    105.02190606	     79.22964448	     11.29959065	     55.27983430	    135.36847790	     93.31999266
      1.98333330	     -2.40165865	      2.46923641	     -4.24128479	      0.29717827	      0.84194029	      0.05996258	      3.35621664	      5.94296377	     -7.66534832	      7.38523183	      0.12889661	      1.63319677	     -9.88355494	     -7.49999987	     12.52303891	     -0.86508035	     -2.37912424	     22.48972073	      0.39251967	      0.96381768	    -15.36566660	     -7.49999987	     -5.94485917	     -2.53187679	      5.33708871	     92.60270400	      6.19931452	     69.03971006	    119.15395945	    104.27161405	     79.12523727	     11.17997930	     55.34837531	    135.14113145	     92.56697229
      2.00000000	     -2.33528085	      2.51773150	     -4.16005983	      0.29303120	      0.84402147	      0.05916973	      3.46816621	      5.91216009	     -7.64345801	      7.27642126	      0.12699751	      1.64870033	    -10.04655959	     -7.49999987	     12.54666270	     -0.65285884	     -1.30228517	     22.75727564	      0.39718939	      1.09961566	    -15.70934860	     -7.49999987	     -6.04356135	     -2.64964469	      5.66050806	     92.28609232	      6.17323389	     68.84112224	    120.01774296	    103.81121717	     79.08864216	     11.47598968	     55.89171237	    134.43059003	     91.88777017
      2.01666670	     -2.27126981	      2.45847190	     -3.97786309	      0.29569951	      0.84411131	      0.05889615	      3.35869411	      5.94177909	     -7.69307776	      7.20462582	      0.12574444	      1.67530475	     -9.99244765	     -7.49999987	     12.58283390	     -0.53353011	     -0.31631366	     23.13102872	      0.40371261	      1.85190828	    -15.70438698	     -7.49999987	     -5.98360899	     -2.65142839	      5.39796557	     91.79039709	      6.22692863	     68.82475481	    120.45360169	    105.48651692	     78.82109088	     11.40153627	     56.22266325	    134.62893319	     93.39558218
      2.03333330	     -2.20203566	      2.38268536	     -3.96712263	      0.29349241	      0.84347480	      0.05799161	      3.47229087	      5.99458540	     -7.65694419	      7.39939241	      0.12914376	      1.79161810	    -10.00678056	     -7.49999987	     12.82396252	     -0.52768919	      0.09516655	     23.67048575	      0.41312791	      2.09536656	    -16.14481209	     -7.49999987	     -6.15215083	     -2.60325514	      5.27805776	     91.62545496	      6.15690079	     69.10709747	    120.20157056	    104.56849110	     78.82224712	     11.23875233	     56.52360823	    134.78814886	     92.56103929
      2.05000000	     -1.96292942	      2.33521031	     -3.77624894	      0.29278599	      0.84619769	      0.05751810	      3.27682895	      5.99954382	     -7.76394042	      7.34184100	      0.12813930	      1.43939389	    -10.23561386	     -7.49999987	     12.92848339	     -0.43793501	      0.44027927	     23.84308122	      0.41614027	      1.70864531	    -16.94466626	     -7.49999987	     -6.55358620	     -2.62320601	      4.99139213	     91.42843206	      6.10608353	     69.36746682	    119.97362408	    103.84119716	     78.81559299	     11.11517264	     57.02821763	    134.99241997	     91.95915594
      2.06666670	     -1.92459768	      2.27637602	     -3.73164305	      0.29276332	      0.84622469	      0.05729468	      3.25197970	      6.05233275	     -7.61782600	      7.26858209	      0.12686069	      0.79817037	    -10.71687414	     -7.49999987	     13.12415028	     -0.43880875	      0.38788402	     23.67977345	      0.41329001	      1.69360831	    -17.26535422	     -7.49999987	     -6.67136713	     -2.62057400	      4.98230848	     91.20960551	      5.97272770	     69.47268691	    119.67825395	    105.27897053	     78.65401800	     11.20554225	     57.12864090	    135.21991414	     93.38723448
      2.08333330	     -1.79244930	      2.25919831	     -3.56776424	      0.29183331	      0.84565496	      0.05638805	      3.13713405	      6.01199699	     -7.76759371	      7.10956480	      0.12408531	      0.71657623	    -10.68338118	     -7.49999987	     13.44632005	     -0.38709221	      0.20914772	     23.42644999	      0.40886868	      1.88233517	    -17.48186932	     -7.49999987	     -7.00344195	     -2.65695831	      5.02666237	     91.38138687	      5.84218826	     69.62800357	    119.68690569	    104.26759787	     78.81919132	     11.70564274	     57.09772725	    136.04712610	     92.69756164
      2.10000000	     -1.61421409	      2.25361487	     -3.35115185	      0.29277317	      0.84502464	      0.05631557	      2.94990734	      5.99925378	     -7.88567618	      6.91532095	      0.12069512	      0.71923299	    -10.66535361	     -7.49999987	     13.76441233	     -0.41906467	     -0.14563963	     22.99331622	      0.40130907	      2.11761809	    -17.68061408	     -7.49999987	     -7.30072777	     -2.75257479	      5.09915642	     91.57354193	      5.32773040	     69.90304265	    118.52500177	    103.55439214	     78.93867713	     12.04702000	     57.12398305	    135.92710140	     92.00125489
      2.11666670	     -1.56536653	      2.28860256	     -3.46708037	      0.28904918	      0.84955332	      0.05578405	      3.06457816	      5.94766376	     -7.70398441	      6.94313085	      0.12118049	      0.38084834	    -11.04193834	     -7.49999987	     14.35663877	     -0.50647248	     -0.70396418	     22.50552960	      0.39279559	      2.16288659	    -17.62882484	     -7.49999987	     -7.65753577	     -2.92641900	      5.10498206	     91.65706038	      5.02070361	     70.79688821	    115.81837152	    103.70221545	     78.82346497	     11.87894824	     57.26561113	    136.01634919	     92.09427091
      2.13333330	     -1.41065717	      2.35747778	     -3.48386530	      0.28900373	      0.84741770	      0.05513471	      3.11901202	      5.83008104	     -7.57637499	      6.95635875	      0.12141136	      0.23599591	    -11.44810393	     -7.49999987	     15.14692587	     -0.57661596	     -0.99767700	     22.41762800	      0.39126142	      2.10885773	    -17.65703374	     -7.49999987	     -8.05975658	     -3.02553378	      4.86939894	     91.99117374	      5.18573846	     71.29438182	    114.40374325	    103.85512372	     79.00859575	     11.86479871	     56.95523728	    136.81784958	     92.59143862
      2.15000000	     -1.20202248	      2.49312058	     -3.46803497	      0.28949847	      0.84891517	      0.05543600	      2.98425905	      5.67662455	     -7.36305454	      6.78774184	      0.11846844	     -0.12417768	    -11.56125956	     -7.49999987	     15.86388351	     -0.66860530	     -1.52143155	     21.93912492	      0.38290996	      1.93817606	    -17.52891973	     -7.49999987	     -8.24216256	     -3.29233656	      4.69925258	     92.12615830	      5.52245607	     71.29368181	    115.08534004	    103.82889916	     78.90819386	     11.93392572	     56.93033818	    137.40442503	     92.57903301
      2.16666670	     -0.96866112	      2.61589306	     -3.55287250	      0.28883347	      0.84919840	      0.05564340	      2.78117552	      5.56818755	     -6.84650062	      6.68351899	      0.11664941	     -0.47861541	    -12.12875835	     -7.49999987	     16.64263952	     -0.88151902	     -2.19327073	     21.31572457	      0.37202958	      1.83683886	    -17.27380639	     -7.49999987	     -8.42662183	     -3.56037484	      4.61916887	     92.28609513	      6.01227682	     71.11005358	    116.38870565	    103.49382683	     78.82031705	     11.98282363	     56.88980120	    137.77880327	     92.22559536
      2.18333330	     -0.61670741	      2.66444414	     -3.40948082	      0.28637545	      0.85166193	      0.05496445	      2.49986965	      5.48942912	     -7.25945862	      6.52992123	      0.11396863	     -0.31522197	    -11.83825833	     -7.49999987	     17.45285523	     -1.12234986	     -2.59423767	     20.49345433	      0.35767825	      1.56494326	    -16.94540964	     -7.49999987	     -8.79744327	     -3.71612585	      4.40307405	     92.33663915	      6.34864267	     70.57632756	    118.36621799	    104.18416040	     78.84014006	     12.16228909	     57.10270479	    137.63877973	     92.60860943
      2.20000000	     -0.32935198	      2.69689457	     -3.36171283	      0.28545858	      0.85026223	      0.05481774	      2.34643945	      5.43248131	     -7.06954681	      6.50837515	      0.11359258	     -0.34771566	    -12.34635465	     -7.49999987	     18.42735521	     -1.47680559	     -3.10771241	     19.65592160	      0.34306055	      1.58100877	    -16.30450313	     -7.49999987	     -9.04145626	     -3.79755688	      4.26312634	     92.39049702	      6.59884734	     70.19456231	    119.33678140	    104.21773026	     78.83562448	     11.85241834	     57.10204004	    137.01221606	     92.36116474
      2.21666670	      0.12495976	      2.70900197	     -2.97397783	      0.28408490	      0.85488818	      0.05442358	      1.93481823	      5.35361483	     -7.05776636	      6.52097606	      0.11381250	     -0.44840136	    -12.45100329	     -7.49999987	     19.23591095	     -1.78576134	     -3.56451301	     18.38262203	      0.32083728	      1.08556560	    -15.41482448	     -7.49999987	     -9.47426189	     -3.73978814	      4.19170947	     92.43861146	      6.65510945	     70.39822333	    120.26135712	    103.18963876	     78.46351112	     11.59369350	     57.31727358	    136.78255792	     91.42387009
